<svg xmlns="http://www.w3.org/2000/svg" viewBox="0 0 273.4 273.4"><title>safari-pinned-tab</title><path d="M136.7,90.25c-74.38,0,0-89.25,0-89.25S211.08,90.25,136.7,90.25Z" fill="#51ae00" stroke="#000" stroke-linejoin="round" stroke-width="2"/><line x1="136.7" y1="90.25" x2="136.7" y2="24.8" fill="none" stroke="#000" stroke-linejoin="round" stroke-width="2"/><polyline points="124.8 33.73 136.7 45.63 148.6 33.73" fill="none" stroke="#000" stroke-linejoin="round" stroke-width="2"/><polyline points="124.8 51.58 136.7 63.48 148.6 51.58" fill="none" stroke="#000" stroke-linejoin="round" stroke-width="2"/><polyline points="124.8 69.42 136.7 81.33 148.6 69.42" fill="none" stroke="#000" stroke-linejoin="round" stroke-width="2"/><path d="M136.7,272.4s-74.38-89.25,0-89.25S136.7,272.4,136.7,272.4Z" fill="#51ae00" stroke="#000" stroke-linejoin="round" stroke-width="2"/><line x1="136.7" y1="183.15" x2="136.7" y2="248.6" fill="none" stroke="#000" stroke-linejoin="round" stroke-width="2"/><polyline points="148.6 239.68 136.7 227.78 124.8 239.68" fill="none" stroke="#000" stroke-linejoin="round" stroke-width="2"/><polyline points="148.6 221.82 136.7 209.93 124.8 221.82" fill="none" stroke="#000" stroke-linejoin="round" stroke-width="2"/><polyline points="148.6 203.97 136.7 192.07 124.8 203.97" fill="none" stroke="#000" stroke-linejoin="round" stroke-width="2"/><path d="M90.25,136.7c0,74.38-89.25,0-89.25,0S90.25,62.32,90.25,136.7Z" fill="#51ae00" stroke="#000" stroke-linejoin="round" stroke-width="2"/><line x1="90.25" y1="136.7" x2="24.8" y2="136.7" fill="none" stroke="#000" stroke-linejoin="round" stroke-width="2"/><polyline points="33.73 148.6 45.63 136.7 33.73 124.8" fill="none" stroke="#000" stroke-linejoin="round" stroke-width="2"/><polyline points="51.58 148.6 63.48 136.7 51.58 124.8" fill="none" stroke="#000" stroke-linejoin="round" stroke-width="2"/><polyline points="69.42 148.6 81.33 136.7 69.42 124.8" fill="none" stroke="#000" stroke-linejoin="round" stroke-width="2"/><path d="M272.4,136.7s-89.25,74.38-89.25,0S272.4,136.7,272.4,136.7Z" fill="#51ae00" stroke="#000" stroke-linejoin="round" stroke-width="2"/><line x1="183.15" y1="136.7" x2="248.6" y2="136.7" fill="none" stroke="#000" stroke-linejoin="round" stroke-width="2"/><polyline points="239.68 124.8 227.78 136.7 239.68 148.6" fill="none" stroke="#000" stroke-linejoin="round" stroke-width="2"/><polyline points="221.82 124.8 209.93 136.7 221.82 148.6" fill="none" stroke="#000" stroke-linejoin="round" stroke-width="2"/><polyline points="203.97 124.8 192.07 136.7 203.97 148.6" fill="none" stroke="#000" stroke-linejoin="round" stroke-width="2"/><path d="M103.85,169.55c52.6,52.59-63.1,63.1-63.1,63.1S51.26,117,103.85,169.55Z" fill="#51ae00" stroke="#000" stroke-linejoin="round" stroke-width="2"/><line x1="103.85" y1="169.55" x2="57.57" y2="215.83" fill="none" stroke="#000" stroke-linejoin="round" stroke-width="2"/><polyline points="72.3 217.93 72.3 201.1 55.47 201.1" fill="none" stroke="#000" stroke-linejoin="round" stroke-width="2"/><polyline points="84.92 205.31 84.92 188.48 68.09 188.48" fill="none" stroke="#000" stroke-linejoin="round" stroke-width="2"/><polyline points="97.54 192.69 97.54 175.86 80.72 175.86" fill="none" stroke="#000" stroke-linejoin="round" stroke-width="2"/><path d="M232.65,40.75s-10.51,115.7-63.1,63.1S232.65,40.75,232.65,40.75Z" fill="#51ae00" stroke="#000" stroke-linejoin="round" stroke-width="2"/><line x1="169.55" y1="103.85" x2="215.83" y2="57.57" fill="none" stroke="#000" stroke-linejoin="round" stroke-width="2"/><polyline points="201.1 55.47 201.1 72.3 217.93 72.3" fill="none" stroke="#000" stroke-linejoin="round" stroke-width="2"/><polyline points="188.48 68.09 188.48 84.92 205.31 84.92" fill="none" stroke="#000" stroke-linejoin="round" stroke-width="2"/><polyline points="175.86 80.72 175.86 97.54 192.69 97.54" fill="none" stroke="#000" stroke-linejoin="round" stroke-width="2"/><path d="M169.55,169.55c52.59-52.6,63.1,63.1,63.1,63.1S117,222.14,169.55,169.55Z" fill="#51ae00" stroke="#000" stroke-linejoin="round" stroke-width="2"/><line x1="169.55" y1="169.55" x2="215.83" y2="215.83" fill="none" stroke="#000" stroke-linejoin="round" stroke-width="2"/><polyline points="217.93 201.1 201.1 201.1 201.1 217.93" fill="none" stroke="#000" stroke-linejoin="round" stroke-width="2"/><polyline points="205.31 188.48 188.48 188.48 188.48 205.31" fill="none" stroke="#000" stroke-linejoin="round" stroke-width="2"/><polyline points="192.69 175.86 175.86 175.86 175.86 192.69" fill="none" stroke="#000" stroke-linejoin="round" stroke-width="2"/><path d="M40.75,40.75s115.7,10.51,63.1,63.1S40.75,40.75,40.75,40.75Z" fill="#51ae00" stroke="#000" stroke-linejoin="round" stroke-width="2"/><line x1="103.85" y1="103.85" x2="57.57" y2="57.57" fill="none" stroke="#000" stroke-linejoin="round" stroke-width="2"/><polyline points="55.47 72.3 72.3 72.3 72.3 55.47" fill="none" stroke="#000" stroke-linejoin="round" stroke-width="2"/><polyline points="68.09 84.92 84.92 84.92 84.92 68.09" fill="none" stroke="#000" stroke-linejoin="round" stroke-width="2"/><polyline points="80.72 97.54 97.54 97.54 97.54 80.72" fill="none" stroke="#000" stroke-linejoin="round" stroke-width="2"/><path d="M118.92,93.79C50.21,122.25,84.77,11.33,84.77,11.33S187.64,65.32,118.92,93.79Z" fill="#51ae00" stroke="#000" stroke-linejoin="round" stroke-width="2"/><line x1="118.92" y1="93.79" x2="93.88" y2="33.32" fill="none" stroke="#000" stroke-linejoin="round" stroke-width="2"/><polyline points="86.3 46.12 101.85 52.56 108.29 37.01" fill="none" stroke="#000" stroke-linejoin="round" stroke-width="2"/><polyline points="93.13 62.61 108.68 69.05 115.12 53.5" fill="none" stroke="#000" stroke-linejoin="round" stroke-width="2"/><polyline points="99.96 79.1 115.51 85.54 121.95 69.99" fill="none" stroke="#000" stroke-linejoin="round" stroke-width="2"/><path d="M188.63,262.07s-102.87-54-34.15-82.46S188.63,262.07,188.63,262.07Z" fill="#51ae00" stroke="#000" stroke-linejoin="round" stroke-width="2"/><line x1="154.48" y1="179.61" x2="179.52" y2="240.08" fill="none" stroke="#000" stroke-linejoin="round" stroke-width="2"/><polyline points="187.1 227.28 171.55 220.84 165.11 236.39" fill="none" stroke="#000" stroke-linejoin="round" stroke-width="2"/><polyline points="180.27 210.79 164.72 204.35 158.28 219.9" fill="none" stroke="#000" stroke-linejoin="round" stroke-width="2"/><polyline points="173.44 194.3 157.89 187.86 151.45 203.41" fill="none" stroke="#000" stroke-linejoin="round" stroke-width="2"/><path d="M93.79,154.48c28.46,68.71-82.46,34.15-82.46,34.15S65.32,85.76,93.79,154.48Z" fill="#51ae00" stroke="#000" stroke-linejoin="round" stroke-width="2"/><line x1="93.79" y1="154.48" x2="33.32" y2="179.52" fill="none" stroke="#000" stroke-linejoin="round" stroke-width="2"/><polyline points="46.12 187.1 52.56 171.55 37.01 165.11" fill="none" stroke="#000" stroke-linejoin="round" stroke-width="2"/><polyline points="62.61 180.27 69.05 164.72 53.5 158.28" fill="none" stroke="#000" stroke-linejoin="round" stroke-width="2"/><polyline points="79.1 173.44 85.54 157.89 69.99 151.45" fill="none" stroke="#000" stroke-linejoin="round" stroke-width="2"/><path d="M262.07,84.77s-54,102.87-82.46,34.15S262.07,84.77,262.07,84.77Z" fill="#51ae00" stroke="#000" stroke-linejoin="round" stroke-width="2"/><line x1="179.61" y1="118.92" x2="240.08" y2="93.88" fill="none" stroke="#000" stroke-linejoin="round" stroke-width="2"/><polyline points="227.28 86.3 220.84 101.85 236.39 108.29" fill="none" stroke="#000" stroke-linejoin="round" stroke-width="2"/><polyline points="210.79 93.13 204.35 108.68 219.9 115.12" fill="none" stroke="#000" stroke-linejoin="round" stroke-width="2"/><polyline points="194.3 99.96 187.86 115.51 203.41 121.95" fill="none" stroke="#000" stroke-linejoin="round" stroke-width="2"/><path d="M118.92,179.61c68.72,28.47-34.15,82.46-34.15,82.46S50.21,151.15,118.92,179.61Z" fill="#51ae00" stroke="#000" stroke-linejoin="round" stroke-width="2"/><line x1="118.92" y1="179.61" x2="93.88" y2="240.08" fill="none" stroke="#000" stroke-linejoin="round" stroke-width="2"/><polyline points="108.29 236.39 101.85 220.84 86.3 227.28" fill="none" stroke="#000" stroke-linejoin="round" stroke-width="2"/><polyline points="115.12 219.9 108.68 204.35 93.13 210.79" fill="none" stroke="#000" stroke-linejoin="round" stroke-width="2"/><polyline points="121.95 203.41 115.51 187.86 99.96 194.3" fill="none" stroke="#000" stroke-linejoin="round" stroke-width="2"/><path d="M188.63,11.33s34.56,110.92-34.15,82.46S188.63,11.33,188.63,11.33Z" fill="#51ae00" stroke="#000" stroke-linejoin="round" stroke-width="2"/><line x1="154.48" y1="93.79" x2="179.52" y2="33.32" fill="none" stroke="#000" stroke-linejoin="round" stroke-width="2"/><polyline points="165.11 37.01 171.55 52.56 187.1 46.12" fill="none" stroke="#000" stroke-linejoin="round" stroke-width="2"/><polyline points="158.28 53.5 164.72 69.05 180.27 62.61" fill="none" stroke="#000" stroke-linejoin="round" stroke-width="2"/><polyline points="151.45 69.99 157.89 85.54 173.44 79.1" fill="none" stroke="#000" stroke-linejoin="round" stroke-width="2"/><path d="M179.61,154.48c28.47-68.72,82.46,34.15,82.46,34.15S151.15,223.19,179.61,154.48Z" fill="#51ae00" stroke="#000" stroke-linejoin="round" stroke-width="2"/><line x1="179.61" y1="154.48" x2="240.08" y2="179.52" fill="none" stroke="#000" stroke-linejoin="round" stroke-width="2"/><polyline points="236.39 165.11 220.84 171.55 227.28 187.1" fill="none" stroke="#000" stroke-linejoin="round" stroke-width="2"/><polyline points="219.9 158.28 204.35 164.72 210.79 180.27" fill="none" stroke="#000" stroke-linejoin="round" stroke-width="2"/><polyline points="203.41 151.45 187.86 157.89 194.3 173.44" fill="none" stroke="#000" stroke-linejoin="round" stroke-width="2"/><path d="M11.33,84.77s110.92-34.56,82.46,34.15S11.33,84.77,11.33,84.77Z" fill="#51ae00" stroke="#000" stroke-linejoin="round" stroke-width="2"/><line x1="93.79" y1="118.92" x2="33.32" y2="93.88" fill="none" stroke="#000" stroke-linejoin="round" stroke-width="2"/><polyline points="37.01 108.29 52.56 101.85 46.12 86.3" fill="none" stroke="#000" stroke-linejoin="round" stroke-width="2"/><polyline points="53.5 115.12 69.05 108.68 62.61 93.13" fill="none" stroke="#000" stroke-linejoin="round" stroke-width="2"/><polyline points="69.99 121.95 85.54 115.51 79.1 99.96" fill="none" stroke="#000" stroke-linejoin="round" stroke-width="2"/><circle cx="136.7" cy="136.7" r="81" fill="#e9be8c" stroke="#000" stroke-linecap="round" stroke-linejoin="round" stroke-width="4"/><circle cx="112.4" cy="128.6" r="18.9" fill="#fff" stroke="#000" stroke-linecap="round" stroke-linejoin="round" stroke-width="4"/><circle cx="112.4" cy="134" r="8.1"/><circle cx="161" cy="128.6" r="18.9" fill="#fff" stroke="#000" stroke-linecap="round" stroke-linejoin="round" stroke-width="4"/><circle cx="161" cy="134" r="8.1"/><path d="M179.9,170.81c0,14-10.88,25.29-24.3,25.29a23.92,23.92,0,0,1-18.9-9.38,23.92,23.92,0,0,1-18.9,9.38c-13.42,0-24.3-11.31-24.3-25.29s10.88-25.27,24.3-25.27c6.37,0,12.53-3.44,18.9-3.44s12.68,3.44,18.9,3.44C169,145.54,179.9,156.86,179.9,170.81Z" fill="#eadbbc" stroke="#000" stroke-linecap="round" stroke-linejoin="round" stroke-width="4"/><path d="M152.9,157.85c0,10.8-7.25,3.33-16.2,3.33s-16.2,6.91-16.2-3.33,8.1-15.75,16.2-15.75S152.9,147.07,152.9,157.85Z" stroke="#000" stroke-linecap="round" stroke-linejoin="round" stroke-width="4"/></svg>